<?xml version="1.0" encoding="utf-8"?>
<!-- Generator: Adobe Illustrator 23.1.0, SVG Export Plug-In . SVG Version: 6.00 Build 0)  -->
<svg version="1.1" id="레이어_1" xmlns="http://www.w3.org/2000/svg" xmlns:xlink="http://www.w3.org/1999/xlink" x="0px"
	 y="0px" viewBox="0 0 25.5 25.5" style="enable-background:new 0 0 25.5 25.5;" xml:space="preserve">
<style type="text/css">
	.st0{fill-rule:evenodd;clip-rule:evenodd;fill:#112BDA;}
</style>
<g>
	<g>
		<path class="st0" d="M7.6,6.9c2.5-2.2,6.1-2.5,8.9-0.9l-1.3,0c-0.5,0-0.9,0.4-0.9,0.9c0,0.5,0.4,0.9,0.9,0.9h0L19,7.8
			c0.5,0,0.9-0.4,0.9-1l-0.1-3.6c0-0.2-0.1-0.5-0.3-0.6c-0.2-0.2-0.4-0.3-0.7-0.2c-0.5,0-0.9,0.4-0.9,0.9l0.1,1.5
			c-1.4-1-3-1.5-4.8-1.6c-2.5-0.1-4.9,0.7-6.7,2.4c-2.5,2.3-3.6,5.8-2.8,9.1c0.1,0.4,0.5,0.7,0.9,0.7c0.1,0,0.1,0,0.2,0
			c0.5-0.1,0.8-0.6,0.7-1.1C4.7,11.6,5.6,8.8,7.6,6.9"/>
		<path class="st0" d="M21.9,10.6L21.9,10.6c-0.1-0.2-0.2-0.4-0.4-0.6c-0.2-0.1-0.4-0.2-0.7-0.1c-0.2,0.1-0.4,0.2-0.6,0.4
			c-0.1,0.2-0.2,0.5-0.1,0.7c0.7,2.7-0.2,5.5-2.3,7.3c-1.4,1.2-3.2,1.9-5,1.9c-1.4,0-2.8-0.4-4-1.2l1.4-0.1c0.2,0,0.5-0.1,0.6-0.3
			c0.2-0.2,0.2-0.4,0.2-0.7c0-0.5-0.5-0.9-1-0.8l-3.6,0.3c-0.5,0-0.9,0.5-0.8,1L6,22c0,0.5,0.4,0.8,1,0.8h0c0.2,0,0.5-0.1,0.6-0.3
			c0.2-0.2,0.2-0.4,0.2-0.7l-0.1-1.4c1.4,0.9,3,1.5,4.7,1.6c2.5,0.1,4.9-0.7,6.7-2.4C21.6,17.4,22.7,13.9,21.9,10.6"/>
	</g>
</g>
</svg>
